# xmcd CD database file
#
# Track frame offsets:
#	150
#	16507
#	33035
#	53520
#	63356
#	76390
#	99880
#	120895
#	141153
#	159922
#	176972
#	190648
#	226371
#	244958
#	265354
#
# Disc length: 3714 seconds
#
# Revision: 0
# Processed by: cddbd v1.5.2PL0 Copyright (c) Steve Scherf et al.
# Submitted via: CDex 1.51
#
DISCID=ae0e800f
DTITLE=Chet Baker - I'll remember you
DYEAR=2013
DGENRE=Jazz
TTITLE0=How high the moon
TTITLE1=Everything happens to me
TTITLE2=Winter wonderland
TTITLE3=Rondette
TTITLE4=When your over has gone
TTITLE5=Etude in Three
TTITLE6=If you could see me now
TTITLE7=Speak low
TTITLE8=How has this been going on
TTITLE9=There's a small hotel
TTITLE10=Do it the hard way
TTITLE11=Polka dots and moonbeams
TTITLE12=You and the night and the music
TTITLE13=You'd be so nice to come home
TTITLE14=My funny Valentine
EXTD=YEAR: 2013
EXTT0=
EXTT1=
EXTT2=
EXTT3=
EXTT4=
EXTT5=
EXTT6=
EXTT7=
EXTT8=
EXTT9=
EXTT10=
EXTT11=
EXTT12=
EXTT13=
EXTT14=
PLAYORDER=
